<?xml version="1.0" encoding="utf-8"?>
<!-- Generator: Adobe Illustrator 22.0.1, SVG Export Plug-In . SVG Version: 6.00 Build 0)  -->
<svg version="1.1" id="bg" xmlns="http://www.w3.org/2000/svg" xmlns:xlink="http://www.w3.org/1999/xlink" x="0px" y="0px"
	 viewBox="0 0 100 100" style="enable-background:new 0 0 100 100;" xml:space="preserve">
<style type="text/css">
	.st0{fill:#EA5045;}
	.st1{clip-path:url(#SVGID_2_);fill:#231F20;stroke:#EA5045;stroke-width:0.711;stroke-miterlimit:10;}
	.st2{fill:#231F20;}
	.st3{fill:#EA5045;stroke:#FFFFFF;stroke-width:4.4702;stroke-miterlimit:10;}
	.st4{fill:#EA5045;stroke:#FFFFFF;stroke-width:0.1875;stroke-miterlimit:10;}
	.st5{fill:#020202;}
</style>
<rect class="st0" width="100" height="100"/>
<g>
	<g>
		<defs>
			<rect id="SVGID_1_" x="2.4" y="3" width="95.6" height="95"/>
		</defs>
		<clipPath id="SVGID_2_">
			<use xlink:href="#SVGID_1_"  style="overflow:visible;"/>
		</clipPath>
		<path class="st1" d="M28,58.1c-0.5,13.1,9.9,25.2,22,25.1c11.9,0,21.9-11.3,22.1-24.7c0.2-12.9-9.3-25.3-22-25.4
			C37.6,33.1,27.6,45.4,28,58.1L28,58.1z M50,98c-11.4,0-22.9,0-34.3,0c-3.9,0-7.4-1.3-10.1-4.7c-1.9-2.4-3.3-5.2-3.3-8.5
			c0-17.9-0.1-35.8,0-53.7c0-6.3,5.9-12.3,11.8-12.4c3.4-0.1,6.9-0.1,10.3,0c1.1,0,1.7-0.4,2.1-1.6c0.5-1.9,1.2-3.8,1.9-5.7
			c1.6-4.5,5-7,9.2-7c8.2,0,16.4,0,24.6,0c4.4,0,7.7,2.6,9.3,7.2c0.7,1.9,1.4,3.9,2,5.9c0.3,1,0.8,1.4,1.8,1.4c3.3,0,6.6,0,9.8,0
			c7,0,12.7,6.2,12.7,14.2c0.1,17,0.1,34,0,51c0,8.1-5.8,14.2-13.2,14.2C73.1,98,61.5,98,50,98L50,98z"/>
	</g>
	<path class="st2" d="M64.4,57.7c0.4,8.9-6.5,16.7-14.6,16.6c-7-0.1-14.2-6.4-14.2-16.6c0-9.7,6.5-16.6,14.5-16.6
		C58.4,41,64.8,49.1,64.4,57.7L64.4,57.7z"/>
</g>
<ellipse class="st3" cx="50" cy="56.2" rx="38.3" ry="33.8"/>
<g>
	<path class="st4" d="M54.4,30.8c5.2,0,9.2,1.1,12.1,3.4c2.9,2.3,4.4,5.4,4.4,9.4c0,3-0.7,5.6-2.2,7.8c-1.5,2.2-3.9,3.8-7.2,4.6v0.1
		c1.6,0.3,2.8,0.7,3.8,1.4c1,0.6,1.8,1.4,2.4,2.3c0.6,0.9,1,1.9,1.3,3s0.5,2.2,0.6,3.4c0.1,1.2,0.2,2.4,0.2,3.6
		c0,1.2,0.2,2.5,0.4,3.6c0.2,1.2,0.5,2.3,0.9,3.4c0.4,1.1,0.9,2,1.7,2.9h-8c-0.5-0.5-0.8-1.2-1-2.1c-0.2-0.9-0.3-1.8-0.3-2.9
		c-0.1-1.1-0.1-2.2-0.2-3.5c-0.1-1.2-0.2-2.5-0.5-3.6c-0.2-1.2-0.5-2.3-0.8-3.4c-0.3-1.1-0.8-2-1.4-2.8c-0.7-0.8-1.5-1.4-2.6-1.9
		c-1.1-0.5-2.5-0.7-4.3-0.7H36.1v21h-7.2V30.8H54.4z M55.9,53.1c1.5-0.2,2.8-0.7,4-1.3s2-1.6,2.7-2.7c0.7-1.1,1-2.6,1-4.4
		c0-2.5-0.8-4.5-2.3-6c-1.5-1.6-4-2.3-7.4-2.3H36.1v17.1h15C52.8,53.4,54.4,53.3,55.9,53.1z"/>
</g>
<g>
	<g>
		<path class="st5" d="M80.7,61c0-1.8,0-3.5,0-5.2c-4.2,0-8.4,0-12.6,0c-0.7,0-1.6,0.4-2,1c-0.7,0.9-0.6,2.2-0.1,3.2
			c0.4,0.9,1.4,1,2.3,1c2.8,0,5.6,0,8.3,0C77.9,61,79.2,61,80.7,61L80.7,61z M80.7,52.9c-0.1-1.8-1.3-3-3.2-3.1
			c-3-0.2-6.1-0.1-9.1-0.2c-1.4,0-2.8,0-4.2,0c0-1,0-1.9,0-2.8c0.3,0,0.5,0,0.7,0c3.7,0,7.4,0,11.2,0c0.9,0,1.9,0.1,2.8,0.4
			c2.8,0.6,4.6,2.7,4.7,5.5c0.1,3.2,0.1,6.5,0.1,9.7c0,0.4,0,0.9,0,1.4c-0.4,0-0.7,0-1,0c-4.5,0-8.9,0-13.4,0c-1,0-2.1-0.1-3.1-0.4
			c-1.9-0.5-3-2-3.2-4c-0.1-0.9-0.1-1.8,0.1-2.6c0.5-2.5,2.2-3.8,5.1-3.9c3.9-0.1,7.7,0,11.6,0C80,52.9,80.3,52.9,80.7,52.9
			L80.7,52.9z"/>
		<path class="st5" d="M41.6,54.8c0.3,0,0.6,0,0.9,0c3.3,0,6.6,0,9.9,0c0.8,0,1.5,0,2.3-0.2c0.5-0.1,1.2-0.3,1.5-0.7
			c0.7-0.9,0.6-2.1,0.2-3.1c-0.3-0.9-1.2-1.1-2-1.1c-2.9,0-5.9-0.1-8.8,0C42.9,49.8,41.2,51.2,41.6,54.8L41.6,54.8z M41.7,57.7
			c0,1.4,0.7,2.6,2.1,2.9c1.2,0.3,2.5,0.4,3.8,0.4c3.3,0.1,6.6,0,10,0c0.3,0,0.7,0,1.1,0v2.7c-0.2,0-0.4,0.1-0.6,0.1
			c-3.9,0-7.9,0-11.8,0c-0.7,0-1.3-0.1-1.9-0.2c-3.3-0.6-5.1-2.5-5.4-5.8c-0.1-1.9-0.2-3.9,0.1-5.8c0.5-3,2.4-4.9,5.4-5.1
			c3.6-0.2,7.3-0.2,10.9,0c2.6,0.1,4,1.8,4.2,4.4c0,0.6,0.1,1.3,0,1.9c-0.4,2.7-1.8,4-4.5,4.2c-4,0.2-8.1,0.1-12.1,0.2
			C42.4,57.7,42.1,57.7,41.7,57.7L41.7,57.7z"/>
		<path class="st5" d="M16.4,47c1,0,1.8,0,2.7,0c0,4.4,0,8.7,0,13.3c0.4-0.3,0.6-0.5,0.8-0.7c4.2-4,8.4-8.1,12.6-12.1
			c0.3-0.3,0.9-0.5,1.3-0.5c1-0.1,2,0,3.2,0c-3.1,3-6,5.8-8.9,8.7c3.2,2.7,6.4,5.4,9.8,8.3c-1.6,0-2.9,0-4.2,0
			c-0.2,0-0.5-0.2-0.7-0.4c-2.3-1.9-4.6-3.9-6.9-5.9c-0.2,0.2-0.4,0.3-0.6,0.5c-1.7,1.6-3.4,3.2-5.1,4.9c-0.7,0.7-1.4,1-2.4,1
			c-1.9-0.1-1.6,0.3-1.6-1.6c0-4.8,0-9.5,0-14.3C16.4,47.7,16.4,47.4,16.4,47L16.4,47z"/>
	</g>
</g>
</svg>
